<?xml version="1.0" encoding="utf-8"?>
<!-- Generator: Adobe Illustrator 19.0.0, SVG Export Plug-In . SVG Version: 6.00 Build 0)  -->
<svg version="1.1" id="eyeson_logo" xmlns="http://www.w3.org/2000/svg" xmlns:xlink="http://www.w3.org/1999/xlink" x="0px"
	 y="0px" viewBox="0 0 180 30.75" style="enable-background:new 0 0 180 30.75;" xml:space="preserve">
<g id="XMLID_1_">
	<path id="XMLID_9_" style="fill:#3399CC;" d="M70.888,20.96c0.099,0.345,0.146,0.559,0.146,0.827c0,0.359-0.054,0.772-0.156,1.08
		l-0.17,0.634H58v-20h12.355l0.17,0.443c0.102,0.306,0.156,0.588,0.156,0.95c0,0.314-0.052,0.682-0.155,0.992L70.355,6.5H61v5h8.414
		l0.171,0.502c0.104,0.311,0.156,0.618,0.156,0.934c0,0.332-0.056,0.704-0.156,1.006L69.414,14.5H61v6h9.732L70.888,20.96z
		 M71.292,8.618l0.185,0.723c1.16,4.56,2.977,8.892,5.404,12.889c-1.045,1.606-2.249,3.148-3.583,4.589l-0.317,0.342l0.168,0.436
		c0.279,0.727,0.903,1.264,1.668,1.44l0.421,0.098l0.295-0.315c4.984-5.33,8.286-11.695,10.094-19.46l0.162-0.72
		c0,0-0.424-0.258-1.572-0.42c-1.054-0.149-1.633,0.157-1.633,0.157l-0.106,0.5c-0.78,3.652-2.047,7.165-3.771,10.455
		c-1.478-2.799-3.235-6.554-4.087-10.336L74.488,8.5c0,0-0.761-0.157-1.529-0.146C71.876,8.37,71.292,8.618,71.292,8.618z
		 M107.152,13.974c-2.532-0.422-2.742-1.021-2.742-1.65c0-1.29,1.641-1.483,2.66-1.484c1.199-0.063,2.431,0.252,3.578,0.918
		l0.473,0.274l0.406-0.365c0.51-0.459,0.836-1.043,0.943-1.688l0.083-0.503l-0.438-0.263c-1.51-0.906-3.214-1.361-4.93-1.321
		c-3.495,0-5.843,1.844-5.843,4.589c0,3.348,3.027,4.173,5.292,4.501c3.17,0.514,3.17,1.273,3.17,1.884
		c0,1.563-1.936,1.797-3.109,1.797c-1.337,0.048-2.605-0.4-3.563-1.229l-0.405-0.349l-0.463,0.27
		c-0.637,0.37-1.066,0.91-1.279,1.603l-0.141,0.457l0.355,0.264c0.609,0.549,2.365,1.821,5.504,1.821h0.012
		c3.74,0,6.156-1.868,6.156-4.846C112.872,15.299,109.979,14.433,107.152,13.974z M99.984,14.836l-0.027,0.233L99.788,16.5H89.349
		c0.324,3,1.883,3.976,4.205,3.976c1.41,0.032,2.722-0.271,3.787-1.166l0.393-0.329l0.449,0.245c0.616,0.336,1.065,0.91,1.23,1.574
		l0.112,0.448l-0.351,0.302c-1.544,1.329-3.526,2.062-5.582,2.062c-4.478,0-7.371-3.063-7.371-7.802
		c0-4.514,3.067-7.918,7.135-7.918C97.259,7.892,99.984,10.704,99.984,14.836z M89.46,13.5h7.213c-0.251-1-1.504-3.123-3.395-3.123
		C91.385,10.377,89.928,12.5,89.46,13.5z"/>
	<path id="XMLID_13_" style="fill:#3399CC;" d="M115.081,14.13c0-5.915,4.152-9.833,9.872-9.833c5.719,0,9.911,3.761,9.911,9.833
		c0,5.876-4.153,9.794-9.872,9.794C119.273,23.924,115.081,20.124,115.081,14.13z M129.223,14.13c0-3.134-1.685-4.936-4.27-4.936
		c-2.586,0-4.27,1.802-4.27,4.936c0,3.056,1.685,4.897,4.27,4.897S129.223,17.186,129.223,14.13z M143.913,9.233
		c-3.722,0-6.229,1.449-7.208,2.311v11.831c1.724,0.274,3.447,0.274,5.171,0v-9.128c0.509-0.274,1.097-0.392,1.685-0.392
		c1.058,0,1.998,0.47,1.998,1.998v7.561c1.724,0.274,3.447,0.274,5.171,0v-8.227C150.73,11.623,148.614,9.233,143.913,9.233z"/>
	<path id="XMLID_39_" style="fill:#333333;" d="M174.28,6.592c-0.405-0.383-0.639-0.921-0.639-1.478
		c0-1.105,0.916-2.004,2.042-2.004c0.543,0,1.067,0.226,1.438,0.619c0.364,0.387,0.556,0.907,0.525,1.429
		c0.001,1.061-0.881,1.959-1.964,1.959V7.117l-0.104,0.003C175.102,7.12,174.644,6.935,174.28,6.592z M155.041,19.407
		c-1.17,0-2.041,0.969-2.041,2.16v0.037c0,1.169,0.927,2.084,2.08,2.084c1.17,0,2.121-0.969,2.121-2.16
		C157.201,20.358,156.232,19.407,155.041,19.407z M174.601,8.428L174,8.583v14.609l0.601,0.155c0.375,0.106,0.757,0.106,1.016,0.106
		c0.302,0,0.539,0,0.914-0.106L177,23.191V8.607l-0.452-0.17C175.978,8.249,175.324,8.222,174.601,8.428z M171,13.85v8.315
		l-0.286,0.214c-1.43,0.796-3.642,1.31-5.788,1.31c-3.953,0-6.337-1.906-6.337-5.099c0-3.025,2.383-4.98,6.146-4.98
		c1.19,0,2.265,0.179,3.265,0.534V13.85c0-1.92-1.008-2.894-3.188-2.894c-1.351,0-2.521,0.416-3.472,1.169l-0.361,0.285l-0.42-0.19
		c-0.648-0.295-1.098-0.884-1.22-1.617l-0.083-0.417l0.293-0.275c1.511-1.295,3.338-1.99,5.342-1.943
		C168.786,8.021,171,10.219,171,13.85z M161.665,18.473c0,1.905,1.766,2.306,3.246,2.306c1.155,0,2.089-0.16,3.089-0.478v-3.035
		c-1-0.464-2.141-0.707-3.285-0.707C163.576,16.559,161.665,16.808,161.665,18.473z"/>
	<path id="XMLID_40_" style="fill:#3399CC;" d="M28.524,2.011c1.796,0.025,3.232,1.502,3.207,3.299v10.847v0.092
		c-0.025,1.796-1.502,3.232-3.299,3.207c-1.796-0.025-3.232-1.502-3.207-3.299V5.309c-0.025-1.795,1.409-3.272,3.204-3.299
		L28.524,2.011z"/>
	<path id="XMLID_46_" style="fill:#333333;" d="M32.225,2.168c6.205,1.004,14.679,1.321,21.089,9.971
		c1.39,1.876,0.262,3.417-0.574,4.017c-0.835,0.6-2.894,0.949-4.232-1.076C42.457,5.921,36.73,3.826,32.225,2.168z M21.261,6.214
		c-0.938-0.044-1.837,0.377-2.404,1.125c-3.856,4.947-3.308,12.081,1.259,16.38s11.721,4.417,16.427,0.27s5.487-11.26,1.796-16.33
		c-0.907-1.284-2.683-1.59-3.967-0.683c-1.284,0.907-1.59,2.683-0.683,3.967l0.049,0.067c1.992,2.735,1.581,6.472-0.958,8.71
		s-6.297,2.176-8.761-0.144s-2.752-6.068-0.671-8.736c0.984-1.226,0.788-3.018-0.438-4.002C22.439,6.46,21.862,6.242,21.261,6.214z
		 M8.216,13.917c-1.338-2.025-3.253-1.748-4.232-1.076S2.02,14.982,3.41,16.858c6.41,8.65,14.884,8.967,21.089,9.971
		C19.994,25.171,14.267,23.076,8.216,13.917z"/>
</g>
</svg>
