<?xml version="1.0" encoding="utf-8"?>
<!-- Generator: Adobe Illustrator 19.0.0, SVG Export Plug-In . SVG Version: 6.00 Build 0)  -->
<svg version="1.1" id="eyeson_logo" xmlns="http://www.w3.org/2000/svg" xmlns:xlink="http://www.w3.org/1999/xlink" x="0px"
	 y="0px" viewBox="0 0 55.833 30.75" style="enable-background:new 0 0 55.833 30.75;" xml:space="preserve">
<g id="XMLID_14_">
	<path id="XMLID_16_" style="fill:#3399CC;" d="M28.524,2.011c1.796,0.025,3.232,1.502,3.207,3.299v10.847v0.092
		c-0.025,1.796-1.502,3.232-3.299,3.207c-1.796-0.025-3.232-1.502-3.207-3.299V5.309c-0.025-1.795,1.409-3.272,3.204-3.299
		L28.524,2.011z"/>
	<path id="XMLID_20_" style="fill:#333333;" d="M32.225,2.168c6.205,1.004,14.679,1.321,21.089,9.971
		c1.39,1.876,0.262,3.417-0.574,4.017c-0.835,0.6-2.894,0.949-4.232-1.076C42.457,5.921,36.73,3.826,32.225,2.168z M21.261,6.214
		c-0.938-0.044-1.837,0.377-2.404,1.125c-3.856,4.947-3.308,12.081,1.259,16.38s11.721,4.417,16.427,0.27s5.487-11.26,1.796-16.33
		c-0.907-1.284-2.683-1.59-3.967-0.683c-1.284,0.907-1.59,2.683-0.683,3.967l0.049,0.067c1.992,2.735,1.581,6.472-0.958,8.71
		s-6.297,2.176-8.761-0.144s-2.752-6.068-0.671-8.736c0.984-1.226,0.788-3.018-0.438-4.002C22.439,6.46,21.862,6.242,21.261,6.214z
		 M8.216,13.917c-1.338-2.025-3.253-1.748-4.232-1.076S2.02,14.982,3.41,16.858c6.41,8.65,14.884,8.967,21.089,9.971
		C19.994,25.171,14.267,23.076,8.216,13.917z"/>
</g>
</svg>
